<svg width="1920" height="1080" viewBox="0 0 1920 1080" xmlns="http://www.w3.org/2000/svg"><rect width="1920" height="1080" fill="#212121"/><path d="M 0,1080 C 0,1080 0,135 0,135 C 109.37849779086895,129.5975699558174 218.7569955817379,124.19513991163477 307,122 C 395.2430044182621,119.80486008836523 462.35051546391753,120.81701030927834 548,125 C 633.6494845360825,129.18298969072166 737.840942562592,136.53681885125184 842,128 C 946.159057437408,119.46318114874816 1050.2857142857144,95.03571428571428 1143,110 C 1235.7142857142856,124.96428571428572 1317.0162002945506,179.32032400589102 1410,178 C 1502.9837997054494,176.67967599410898 1607.6494845360826,119.68298969072166 1694,98 C 1780.3505154639174,76.31701030927834 1848.3858615611196,89.9477172312224 1883,102 C 1917.6141384388804,114.0522827687776 1918.80706921944,124.52614138438881 1920,135 C 1920,135 1920,1080 1920,1080 Z" fill="#feffff" opacity="0.075"/><path d="M 0,1080 C 0,1080 0,270 0,270 C 89.55909425625921,289.6642120765832 179.11818851251843,309.32842415316645 263,312 C 346.88181148748157,314.67157584683355 425.0863402061856,300.35051546391753 505,303 C 584.9136597938144,305.64948453608247 666.5364506627394,325.26951399116354 773,308 C 879.4635493372606,290.73048600883646 1010.7678571428571,236.57142857142853 1110,235 C 1209.232142857143,233.42857142857147 1276.3921207658323,284.4447717231223 1359,286 C 1441.6078792341677,287.5552282768777 1539.663659793814,239.64948453608247 1653,241 C 1766.336340206186,242.35051546391753 1894.9532400589103,292.9572901325479 1942,306 C 1989.0467599410897,319.0427098674521 1954.5233799705447,294.52135493372606 1920,270 C 1920,270 1920,1080 1920,1080 Z" fill="#feffff" opacity="0.15"/><path d="M 0,1080 C 0,1080 0,405 0,405 C 99.20600147275405,418.414764359352 198.4120029455081,431.82952871870395 294,430 C 389.5879970544919,428.17047128129605 481.5579896907217,411.0966494845361 566,402 C 650.4420103092783,392.9033505154639 727.3560382916053,391.7838733431517 811,378 C 894.6439617083947,364.2161266568483 985.0178571428573,337.7678571428571 1086,358 C 1186.9821428571427,378.2321428571429 1298.5725331369663,445.14469808541975 1396,448 C 1493.4274668630337,450.85530191458025 1576.6920103092782,389.65335051546396 1666,385 C 1755.3079896907218,380.34664948453604 1850.6594256259204,432.2418998527246 1894,445 C 1937.3405743740796,457.7581001472754 1928.6702871870398,431.3790500736377 1920,405 C 1920,405 1920,1080 1920,1080 Z" fill="#feffff" opacity="0.22499999999999998"/><path d="M 0,1080 C 0,1080 0,540 0,540 C 113.12076583210606,517.4629970544919 226.24153166421212,494.92599410898384 304,502 C 381.7584683357879,509.07400589101616 424.15463917525767,545.7590206185566 518,552 C 611.8453608247423,558.2409793814434 757.1399116347569,534.0379234167893 856,535 C 954.8600883652431,535.9620765832107 1007.2857142857144,562.0892857142857 1099,575 C 1190.7142857142856,587.9107142857143 1321.717231222386,587.6049337260678 1407,582 C 1492.282768777614,576.3950662739322 1531.8453608247423,565.4909793814433 1623,553 C 1714.1546391752577,540.5090206185567 1856.901325478645,526.4311487481591 1915,524 C 1973.098674521355,521.5688512518409 1946.5493372606775,530.7844256259204 1920,540 C 1920,540 1920,1080 1920,1080 Z" fill="#feffff" opacity="0.3"/><path d="M 0,1080 C 0,1080 0,675 0,675 C 61.44808541973492,703.4039027982327 122.89617083946985,731.8078055964654 224,717 C 325.10382916053015,702.1921944035346 465.8634020618556,644.1726804123712 555,631 C 644.1365979381444,617.8273195876288 681.6502209131077,649.5014727540502 778,677 C 874.3497790868923,704.4985272459498 1029.5357142857142,727.8214285714286 1140,713 C 1250.4642857142858,698.1785714285714 1316.2069219440352,645.2128129602356 1397,633 C 1477.7930780559648,620.7871870397644 1573.6365979381444,649.3273195876288 1662,654 C 1750.3634020618556,658.6726804123712 1831.2466863033874,639.4779086892489 1873,639 C 1914.7533136966126,638.5220913107511 1917.3766568483063,656.7610456553755 1920,675 C 1920,675 1920,1080 1920,1080 Z" fill="#feffff" opacity="0.375"/><path d="M 0,1080 C 0,1080 0,810 0,810 C 123.82400589101618,793.7470544918999 247.64801178203237,777.4941089837997 324,782 C 400.35198821796763,786.5058910162003 429.2319587628866,811.7706185567009 518,828 C 606.7680412371134,844.2293814432991 755.4241531664212,851.4234167893962 873,831 C 990.5758468335788,810.5765832106038 1077.0714285714287,762.5357142857143 1146,760 C 1214.9285714285713,757.4642857142857 1266.2901325478645,800.4337260677468 1335,820 C 1403.7098674521355,839.5662739322532 1489.7680412371135,835.729381443299 1608,824 C 1726.2319587628865,812.270618556701 1876.637702503682,792.6487481590575 1934,789 C 1991.362297496318,785.3512518409425 1955.681148748159,797.6756259204712 1920,810 C 1920,810 1920,1080 1920,1080 Z" fill="#feffff" opacity="0.44999999999999996"/><path d="M 0,1080 C 0,1080 0,945 0,945 C 79.91329160530191,925.0754786450663 159.82658321060381,905.1509572901325 248,896 C 336.1734167893962,886.8490427098675 432.60695876288673,888.4716494845361 524,894 C 615.3930412371133,899.5283505154639 701.7455817378495,908.9624447717231 798,922 C 894.2544182621505,935.0375552282769 1000.4107142857144,951.6785714285713 1087,963 C 1173.5892857142856,974.3214285714287 1240.6115611192931,980.3232695139911 1323,986 C 1405.3884388807069,991.6767304860089 1503.1430412371135,997.0283505154638 1626,983 C 1748.8569587628865,968.9716494845362 1896.8162739322534,935.5633284241533 1950,926 C 2003.1837260677466,916.4366715758467 1961.5918630338733,930.7183357879234 1920,945 C 1920,945 1920,1080 1920,1080 Z" fill="#feffff" opacity="0.525"/></svg>